<svg width="198" height="120" viewBox="0 0 198 120" fill="none" xmlns="http://www.w3.org/2000/svg">
<g filter="url(#filter0_dd_401_1278)">
<rect x="40" y="14" width="118" height="46" rx="8" fill="white"/>
<path d="M72 37.25C74.4609 37.25 76.5 35.2461 76.5 32.75C76.5 30.2891 74.4609 28.25 72 28.25C69.5039 28.25 67.5 30.2891 67.5 32.75C67.5 35.2461 69.5039 37.25 72 37.25ZM75.1289 38.375H74.5312C73.7578 38.7617 72.9141 38.9375 72 38.9375C71.0859 38.9375 70.207 38.7617 69.4336 38.375H68.8359C66.2344 38.375 64.125 40.5195 64.125 43.1211V44.5625C64.125 45.5117 64.8633 46.25 65.8125 46.25H78.1875C79.1016 46.25 79.875 45.5117 79.875 44.5625V43.1211C79.875 40.5195 77.7305 38.375 75.1289 38.375Z" fill="url(#paint0_linear_401_1278)"/>
<path d="M91.4133 43V31.264H94.0593V40.768H98.7033V43H91.4133ZM104.102 43.216C103.538 43.216 102.992 43.114 102.464 42.91C101.936 42.694 101.468 42.388 101.06 41.992C100.664 41.596 100.346 41.11 100.106 40.534C99.8657 39.946 99.7457 39.28 99.7457 38.536C99.7457 37.792 99.8657 37.132 100.106 36.556C100.346 35.968 100.664 35.476 101.06 35.08C101.468 34.684 101.936 34.384 102.464 34.18C102.992 33.964 103.538 33.856 104.102 33.856C104.666 33.856 105.206 33.964 105.722 34.18C106.25 34.384 106.712 34.684 107.108 35.08C107.516 35.476 107.84 35.968 108.08 36.556C108.32 37.132 108.44 37.792 108.44 38.536C108.44 39.28 108.32 39.946 108.08 40.534C107.84 41.11 107.516 41.596 107.108 41.992C106.712 42.388 106.25 42.694 105.722 42.91C105.206 43.114 104.666 43.216 104.102 43.216ZM104.102 41.074C104.642 41.074 105.05 40.846 105.326 40.39C105.602 39.934 105.74 39.316 105.74 38.536C105.74 37.756 105.602 37.138 105.326 36.682C105.05 36.226 104.642 35.998 104.102 35.998C103.55 35.998 103.136 36.226 102.86 36.682C102.596 37.138 102.464 37.756 102.464 38.536C102.464 39.316 102.596 39.934 102.86 40.39C103.136 40.846 103.55 41.074 104.102 41.074ZM113.438 46.798C112.91 46.798 112.418 46.75 111.962 46.654C111.518 46.57 111.122 46.438 110.774 46.258C110.438 46.078 110.174 45.844 109.982 45.556C109.79 45.268 109.694 44.926 109.694 44.53C109.694 43.81 110.12 43.21 110.972 42.73V42.658C110.732 42.502 110.534 42.304 110.378 42.064C110.222 41.824 110.144 41.518 110.144 41.146C110.144 40.822 110.24 40.516 110.432 40.228C110.624 39.928 110.864 39.676 111.152 39.472V39.4C110.84 39.184 110.558 38.878 110.306 38.482C110.066 38.074 109.946 37.606 109.946 37.078C109.946 36.538 110.048 36.07 110.252 35.674C110.456 35.266 110.726 34.93 111.062 34.666C111.41 34.39 111.806 34.186 112.25 34.054C112.694 33.922 113.156 33.856 113.636 33.856C114.164 33.856 114.626 33.928 115.022 34.072H118.28V35.998H116.858C116.942 36.13 117.008 36.298 117.056 36.502C117.116 36.706 117.146 36.928 117.146 37.168C117.146 37.684 117.056 38.134 116.876 38.518C116.696 38.89 116.444 39.202 116.12 39.454C115.808 39.694 115.436 39.874 115.004 39.994C114.584 40.114 114.128 40.174 113.636 40.174C113.288 40.174 112.928 40.114 112.556 39.994C112.436 40.09 112.352 40.186 112.304 40.282C112.256 40.378 112.232 40.504 112.232 40.66C112.232 40.888 112.328 41.056 112.52 41.164C112.724 41.272 113.078 41.326 113.582 41.326H115.022C116.126 41.326 116.966 41.506 117.542 41.866C118.13 42.214 118.424 42.79 118.424 43.594C118.424 44.062 118.304 44.488 118.064 44.872C117.836 45.268 117.506 45.604 117.074 45.88C116.642 46.168 116.12 46.39 115.508 46.546C114.896 46.714 114.206 46.798 113.438 46.798ZM113.636 38.572C113.984 38.572 114.272 38.452 114.5 38.212C114.74 37.96 114.86 37.582 114.86 37.078C114.86 36.61 114.74 36.256 114.5 36.016C114.272 35.764 113.984 35.638 113.636 35.638C113.288 35.638 112.994 35.758 112.754 35.998C112.526 36.238 112.412 36.598 112.412 37.078C112.412 37.582 112.526 37.96 112.754 38.212C112.994 38.452 113.288 38.572 113.636 38.572ZM113.852 45.142C114.452 45.142 114.944 45.034 115.328 44.818C115.712 44.614 115.904 44.356 115.904 44.044C115.904 43.768 115.784 43.582 115.544 43.486C115.316 43.39 114.98 43.342 114.536 43.342H113.618C113.306 43.342 113.054 43.33 112.862 43.306C112.67 43.294 112.502 43.27 112.358 43.234C112.034 43.522 111.872 43.816 111.872 44.116C111.872 44.452 112.052 44.704 112.412 44.872C112.772 45.052 113.252 45.142 113.852 45.142ZM119.867 43V34.072H122.513V43H119.867ZM121.181 32.758C120.737 32.758 120.371 32.632 120.083 32.38C119.795 32.116 119.651 31.78 119.651 31.372C119.651 30.964 119.795 30.634 120.083 30.382C120.371 30.13 120.737 30.004 121.181 30.004C121.637 30.004 122.003 30.13 122.279 30.382C122.567 30.634 122.711 30.964 122.711 31.372C122.711 31.78 122.567 32.116 122.279 32.38C122.003 32.632 121.637 32.758 121.181 32.758ZM124.842 43V34.072H127.002L127.182 35.206H127.254C127.638 34.846 128.058 34.534 128.514 34.27C128.97 33.994 129.504 33.856 130.116 33.856C131.088 33.856 131.79 34.174 132.222 34.81C132.666 35.446 132.888 36.328 132.888 37.456V43H130.242V37.798C130.242 37.15 130.152 36.706 129.972 36.466C129.804 36.226 129.528 36.106 129.144 36.106C128.808 36.106 128.52 36.184 128.28 36.34C128.04 36.484 127.776 36.694 127.488 36.97V43H124.842Z" fill="url(#paint1_linear_401_1278)"/>
</g>
<defs>
<filter id="filter0_dd_401_1278" x="0" y="-6" width="198" height="126" filterUnits="userSpaceOnUse" color-interpolation-filters="sRGB">
<feFlood flood-opacity="0" result="BackgroundImageFix"/>
<feColorMatrix in="SourceAlpha" type="matrix" values="0 0 0 0 0 0 0 0 0 0 0 0 0 0 0 0 0 0 127 0" result="hardAlpha"/>
<feOffset dy="20"/>
<feGaussianBlur stdDeviation="20"/>
<feColorMatrix type="matrix" values="0 0 0 0 1 0 0 0 0 0.680498 0 0 0 0 0 0 0 0 0.29 0"/>
<feBlend mode="normal" in2="BackgroundImageFix" result="effect1_dropShadow_401_1278"/>
<feColorMatrix in="SourceAlpha" type="matrix" values="0 0 0 0 0 0 0 0 0 0 0 0 0 0 0 0 0 0 127 0" result="hardAlpha"/>
<feOffset dy="5"/>
<feGaussianBlur stdDeviation="5"/>
<feColorMatrix type="matrix" values="0 0 0 0 1 0 0 0 0 0.680498 0 0 0 0 0 0 0 0 0.26 0"/>
<feBlend mode="normal" in2="effect1_dropShadow_401_1278" result="effect2_dropShadow_401_1278"/>
<feBlend mode="normal" in="SourceGraphic" in2="effect2_dropShadow_401_1278" result="shape"/>
</filter>
<linearGradient id="paint0_linear_401_1278" x1="56.9718" y1="5.64997" x2="87.9034" y2="7.01517" gradientUnits="userSpaceOnUse">
<stop stop-color="#FFB800"/>
<stop offset="1" stop-color="#FF8A00"/>
</linearGradient>
<linearGradient id="paint1_linear_401_1278" x1="70.6723" y1="5.64997" x2="154.663" y2="15.8443" gradientUnits="userSpaceOnUse">
<stop stop-color="#FFB800"/>
<stop offset="1" stop-color="#FF8A00"/>
</linearGradient>
</defs>
</svg>
